<svg width="62" height="15" viewBox="0 0 62 15" fill="none" xmlns="http://www.w3.org/2000/svg">
<path d="M14.9219 14.3359V0.244141H11.5039L7.5 10.3613H7.42188L3.41797 0.244141H0V14.3359H2.62695V4.82422H2.70508L6.5332 14.3359H8.38867L12.2168 4.82422H12.2949V14.3359H14.9219Z" fill="#3A3A3A"/>
<path d="M20.2148 0.244141H17.2656V9.35547C17.2656 12.4609 19.5605 14.5703 23.1738 14.5703C26.7773 14.5703 29.0723 12.4609 29.0723 9.35547V0.244141H26.123V9.0625C26.123 10.8691 25.0586 12.0508 23.1738 12.0508C21.2793 12.0508 20.2148 10.8691 20.2148 9.0625V0.244141Z" fill="#3A3A3A"/>
<path d="M30.8887 10.3125C30.9766 12.9688 33.2129 14.5703 36.5723 14.5703C40.0977 14.5703 42.2559 12.832 42.2559 10.0781C42.2559 7.93945 40.957 6.73828 37.9785 6.14258L36.4844 5.83984C34.8242 5.50781 34.1406 4.9707 34.1406 4.10156C34.1406 3.06641 35.1172 2.38281 36.5723 2.38281C38.0566 2.38281 39.1016 3.10547 39.1992 4.30664H41.9824C41.9336 1.71875 39.8633 0 36.5723 0C33.4375 0 31.1914 1.70898 31.1914 4.28711C31.1914 6.38672 32.5684 7.73438 35.3809 8.29102L36.8652 8.58398C38.6328 8.94531 39.2969 9.47266 39.2969 10.4004C39.2969 11.4355 38.2227 12.1973 36.6504 12.1973C35.0488 12.1973 33.8574 11.4941 33.6719 10.3125H30.8887Z" fill="#3A3A3A"/>
<path d="M47.0117 14.3359V0.244141H44.0625V14.3359H47.0117Z" fill="#3A3A3A"/>
<path d="M55.5859 14.5703C59.043 14.5703 61.4551 12.5879 61.7871 9.44336H58.916C58.6035 11.1133 57.3438 12.1387 55.5957 12.1387C53.3398 12.1387 51.9238 10.2832 51.9238 7.27539C51.9238 4.30664 53.3594 2.44141 55.5859 2.44141C57.3047 2.44141 58.6328 3.57422 58.9062 5.30273H61.7773C61.5527 2.14844 58.9746 0 55.5859 0C51.5039 0 48.916 2.74414 48.916 7.28516C48.916 11.8359 51.4844 14.5703 55.5859 14.5703Z" fill="#3A3A3A"/>
</svg>
