<svg width="28" height="15" viewBox="0 0 28 15" fill="none" xmlns="http://www.w3.org/2000/svg">
<path d="M0.892578 10.6641H3.74414V4.3457C3.74414 3.17383 4.47656 2.35352 5.56055 2.35352C6.61523 2.35352 7.25 3.01758 7.25 4.14062V10.6641H9.99414V4.30664C9.99414 3.14453 10.707 2.35352 11.791 2.35352C12.8945 2.35352 13.5 3.01758 13.5 4.22852V10.6641H16.3516V3.51562C16.3516 1.40625 14.9746 0 12.9238 0C11.3906 0 10.1406 0.830078 9.67188 2.14844H9.61328C9.26172 0.78125 8.20703 0 6.69336 0C5.26758 0 4.14453 0.830078 3.70508 2.08984H3.64648V0.195312H0.892578V10.6641Z" fill="#FFCD06"/>
<path d="M19.4473 14.541C22.1133 14.541 23.4316 13.5742 24.3203 10.8887L27.9238 0.195312H24.916L22.6992 8.37891H22.6406L20.4141 0.195312H17.2891L20.9316 10.6641C20.9414 10.7129 20.834 11.123 20.834 11.1719C20.6387 12.002 20.1211 12.334 19.0859 12.334C18.9785 12.334 18.4609 12.3242 18.3633 12.3047V14.5117C18.4609 14.5312 19.3398 14.541 19.4473 14.541Z" fill="#FFCD06"/>
</svg>
